/* XPM */
static const char *editor_statement[] = {
/* columns rows colors chars-per-pixel */
"12 12 13 1",
"  c #1273BD",
". c #1574BE",
"X c #1876BE",
"o c #007DD8",
"O c #0091F8",
"+ c #0092F9",
"@ c #0096FF",
"# c #649ECB",
"$ c #67A0CB",
"% c #69A1CC",
"& c #6CA2CC",
"* c #DBDDDF",
"= c transparent",
/* pixels */
"============",
"============",
"============",
"===*&XX&*===",
"===%o+Oo%===",
"=== +@@+ ===",
"=== +@@+ ===",
"===%o++o#===",
"===*#..#*===",
"============",
"============",
"============"
};
