/* XPM */
static const char *editor_breakpoint_hit[] = {
/* columns rows colors chars-per-pixel */
"12 12 42 1",
"  c #A10F0F",
". c #A51B1B",
"X c #A82828",
"o c #A92A2A",
"O c #AB2F2F",
"+ c #B52329",
"@ c #B6232A",
"# c #B7252C",
"$ c #BB2A31",
"% c #BC2B32",
"& c #BD2C32",
"* c #BF2E34",
"= c #AB3131",
"- c #AC3434",
"; c #AE3B3B",
": c #C83541",
"> c #C93643",
", c #CA3744",
"< c #CB3845",
"1 c #CD3A47",
"2 c #CD3C48",
"3 c #CF3D49",
"4 c #CF3F4A",
"5 c #D2424E",
"6 c #D44450",
"7 c #D64854",
"8 c #D84854",
"9 c #D14F5B",
"0 c #D95863",
"q c #D7616C",
"w c #DB6871",
"e c #DC6A73",
"r c #D96B74",
"t c #E2878F",
"y c #E49198",
"u c #EEC0C4",
"i c #F1C1C5",
"p c #FBEDEE",
"a c #FBEFF0",
"s c #FEFAFB",
"d c #FFFFFF",
"f c None",
/* pixels */
"fffO    Xfff",
"ffO*8888*Xff",
"fO%686766&Xf",
"=$6666i066$O",
".35wewppw55 ",
".33dddddst5 ",
".33ddddddy3 ",
".>1qqqpar11 ",
";+><><u9<<#X",
"f-+>>><>>+Xf",
"ff=+>:>>+=ff",
"fffO    Offf"
};
