/* XPM */
static char * editor_continue_on_error_xpm[] = {
"12 12 14 1",
" 	c None",
".	c #00932F",
"+	c #007225",
"@	c #006621",
"#	c #00A936",
"$	c #007F29",
"%	c #00A135",
"&	c #00852C",
"*	c #009A33",
"=	c #00A536",
"-	c #008C2D",
";	c #00862C",
">	c #006C24",
",	c #00A635",
"            ",
"            ",
"      .     ",
"      +@#   ",
" $@@@@$%$&  ",
" $*======-@#",
" $*======;> ",
" $@@@@$*$.  ",
"      >@    ",
"      ,     ",
"            ",
"            "};
