/* XPM */
static const char *editor_breakpoint[] = {
/* columns rows colors chars-per-pixel */
"12 12 25 1",
"  c #A10F0F",
". c #A51B1B",
"X c #A82525",
"o c #A82828",
"O c #AA2D2D",
"+ c #AB2F2F",
"@ c #B52329",
"# c #B7252C",
"$ c #BB2A31",
"% c #BC2B32",
"& c #BF2E34",
"* c #AB3131",
"= c #AC3434",
"- c #AE3B3B",
"; c #C83541",
": c #C93643",
"> c #CB3845",
", c #CD3A47",
"< c #CD3C48",
"1 c #CF3D49",
"2 c #D03F4C",
"3 c #D2424E",
"4 c #D44450",
"5 c #D84854",
"6 c None",
/* pixels */
"666+    X666",
"66+&5555&o66",
"6+%445444&o6",
"*$44444443%+",
".1334333333 ",
".1223222222 ",
".,111111112 ",
".>,,,,,,,,, ",
"-#>>:>>>>:#o",
"6=@::::::#o6",
"66*@;;::@+66",
"666+    +666"
};
