/* XPM */
static const char *editor_current_pos[] = {
/* columns rows colors chars-per-pixel */
"12 12 25 1",
"  c #0069BA",
". c #036ABA",
"X c #086DBB",
"o c #0D70BC",
"O c #1A77BE",
"+ c #007CD6",
"@ c #007CD7",
"# c #007DD9",
"$ c #227BC0",
"% c #2F82C2",
"& c #3F8BC5",
"* c #0082E1",
"= c #0085E5",
"- c #0090F5",
"; c #0091F7",
": c #0093FA",
"> c #0096FF",
", c #6CA2CC",
"< c #74A7CE",
"1 c #7CABCF",
"2 c #B1C7D8",
"3 c #BECEDA",
"4 c #D8DCDF",
"5 c #DDDFE0",
"6 c gray88",
/* pixels */
"666666666666",
"666666566666",
"666666%26666",
"666666o.,466",
"6O ...+:#$26",
"6O->>>>>>=.,",
"6O->>>>>>*X<",
"6O   .+-+%36",
"666666X <566",
"666666&45666",
"666666666666",
"666666666666"
};
